<svg width="101" height="154" viewBox="0 0 101 154" fill="none" xmlns="http://www.w3.org/2000/svg">
<path d="M94.9183 133.66V154H86.5889L67.7988 135.287" fill="#303D35"/>
<path d="M100.73 138.503H23.4844C18.2114 138.503 13.7196 134.776 12.9384 129.479L0.634616 54.3419C-4.0525 25.8958 17.8207 0 46.5293 0H100.73" fill="#303D35"/>
<path d="M34.5134 75.9282C35.0631 73.1763 33.278 70.4999 30.5262 69.9502C27.7743 69.4004 25.0979 71.1855 24.5481 73.9374C23.9984 76.6892 25.7835 79.3656 28.5354 79.9153C31.2872 80.4651 33.9636 78.68 34.5134 75.9282Z" fill="#F5F3EE"/>
<path d="M85.1608 34.1719C81.4877 52.8013 68.9218 67.0707 53.0694 73.6109L49.3962 54.9814C66.9885 49.4322 81.2944 34.1719 85.1608 14.3533C85.1608 14.1551 85.3541 13.7587 85.3541 13.5605C86.514 20.1007 86.514 27.2354 85.1608 34.1719Z" fill="#F5F3EE"/>
<path d="M100.5 0L100.5 138.5" stroke="#303D35"/>
</svg>
