<svg width="134" height="206" viewBox="0 0 134 206" fill="none" xmlns="http://www.w3.org/2000/svg">
<path d="M68.25 24L65.25 23.5556L66.9375 23L68.25 24Z" fill="#303D35"/>
<path d="M68.25 24L65.5833 23.6H65.25L66.9167 23L67.0833 23.1L68.25 24Z" fill="#303D35"/>
<path fill-rule="evenodd" clip-rule="evenodd" d="M71.2604 21.3672L78.2604 29.3672L72.2397 34.6352L65.2397 26.6352L71.2604 21.3672Z" fill="#303D35"/>
<path fill-rule="evenodd" clip-rule="evenodd" d="M59.8247 2.98242L77.8247 22.9824L66.6753 33.0169L48.6753 13.0169L59.8247 2.98242Z" fill="#303D35"/>
<path d="M101.509 27.7644L99.5619 26.9877L100.925 26.017C104.43 23.4929 106.962 19.9981 108.13 16.3091C108.13 16.115 108.325 15.9208 108.325 15.7267C108.519 15.3384 108.519 14.7559 108.714 14.1734C109.493 9.70782 108.714 5.04807 106.183 0.970782L105.404 0L67.0421 22.7163L67.2368 22.9105L68.7947 24.6579L65.679 24.0754L0.25 62.9067L13.75 95.7191C14.7236 95.7191 15.2441 95.7191 16.2178 95.7191C78.7258 95.7191 128.355 144.452 132.25 206L133.25 42L101.509 27.7644ZM65.2895 60.3827C62.5633 60.3827 60.4213 58.2469 60.4213 55.5287C60.4213 52.8106 62.5633 50.6748 65.2895 50.6748C68.0157 50.6748 70.1578 52.8106 70.1578 55.5287C70.1578 58.0528 68.0157 60.3827 65.2895 60.3827Z" fill="#303D35"/>
<line x1="132.75" y1="42" x2="132.75" y2="206" stroke="#303D35"/>
</svg>
