<svg width="280" height="85" viewBox="0 0 280 85" fill="none" xmlns="http://www.w3.org/2000/svg">
<path d="M220.25 0C217.908 19.1111 204.246 34.3556 186.29 39.8978C181.606 41.4267 176.532 42 171.457 42C167.359 42 163.455 41.4267 159.747 40.4711C140.23 35.6933 125.202 20.2578 123.25 0H220.25Z" fill="#303D35"/>
<path fill-rule="evenodd" clip-rule="evenodd" d="M177.25 54V19H195.25V54H177.25Z" fill="#303D35"/>
<path fill-rule="evenodd" clip-rule="evenodd" d="M150.254 53.75L151.254 17.75L169.247 18.2498L168.247 54.2498L150.254 53.75Z" fill="#303D35"/>
<path d="M279.25 0V85H245.536L220.25 0H279.25Z" fill="#303D35"/>
<path d="M0.25 0V85H33.9643L59.25 0H0.25Z" fill="#303D35"/>
<line x1="0.25" y1="0.5" x2="279.25" y2="0.5" stroke="#303D35"/>
</svg>
