<svg width="144" height="235" viewBox="0 0 144 235" fill="none" xmlns="http://www.w3.org/2000/svg">
<path fill-rule="evenodd" clip-rule="evenodd" d="M0 103V0C15.7944 11.9065 26 30.6168 26 52C26 58.6124 25.0241 64.9693 23.2087 70.9484L58.9561 19C65.2179 37.7622 63.0187 58.961 50.897 76.5765C41.3055 90.5149 27.399 99.4525 12.2216 103H41.5H52H143V235L52 183.904V209C52 223.359 40.3594 235 26 235C11.6406 235 0 223.359 0 209V104V103ZM13 160C15.7614 160 18 157.761 18 155C18 152.239 15.7614 150 13 150C10.2386 150 8 152.239 8 155C8 157.761 10.2386 160 13 160Z" fill="#303D35"/>
<line x1="143.5" y1="103" x2="143.5" y2="235" stroke="#303D35"/>
</svg>
