<svg width="194" height="219" viewBox="0 0 194 219" fill="none" xmlns="http://www.w3.org/2000/svg">
<path fill-rule="evenodd" clip-rule="evenodd" d="M193.156 0V94.9584H193.156V124.505H159.705V175.854C159.705 199.342 140.516 218.281 117.081 218.281C93.6456 218.281 74.4568 199.342 74.4568 175.854V56.4186H50.717V121.163C22.9744 121.163 0.28291 98.1418 0.0026248 69.3664H0V68.8272V56.4186V56.4174C0.000652317 28.9129 22.7591 6.78066 50.2858 6.78066C77.4519 6.78066 99.7627 28.3368 100.343 55.3391H100.355V56.4186V175.854C100.355 184.877 107.786 192.383 117.081 192.383C126.375 192.383 133.807 184.877 133.807 175.854V104.437H133.808C133.923 77.3691 142.689 52.4789 157.618 32.195V32.0561C166.807 19.0327 179.003 8.05112 193.156 0ZM25.8983 46.7062C29.4741 46.7062 32.3728 43.8075 32.3728 40.2317C32.3728 36.656 29.4741 33.7572 25.8983 33.7572C22.3226 33.7572 19.4238 36.656 19.4238 40.2317C19.4238 43.8075 22.3226 46.7062 25.8983 46.7062Z" fill="#303D35"/>
<path d="M193.5 0L193.5 124.5" stroke="#303D35"/>
</svg>
