<svg width="169" height="140" viewBox="0 0 169 140" fill="none" xmlns="http://www.w3.org/2000/svg">
<path fill-rule="evenodd" clip-rule="evenodd" d="M1.15576 139H6.4724L6.50026 139H23.8703V139H38.8703V139H55.4121V138.997C55.6078 138.999 55.8038 139 56.0002 139H58.0002C65.9658 138.638 73.5162 136.48 80.2146 132.318C83.2922 130.328 86.1888 127.976 88.9043 125.444C92.5251 122.006 95.6028 118.026 97.9563 113.503C98.4375 112.576 98.9056 111.648 99.3719 110.725L99.3746 110.719C101.363 106.78 103.318 102.908 106.103 99.3916C109.181 95.7733 112.62 92.5168 116.603 89.984C124.026 85.0992 132.716 82.5664 141.586 82.5664C151.544 82.5664 160.776 85.8229 168.199 91.2504C158.061 39.6891 112.258 0.0683594 57.0417 0.0683594C36.8592 0.0683594 17.6744 5.47324 1.15576 14.87V139Z" fill="#303D35"/>
<path d="M0.999995 14.8672L0.999995 139.265" stroke="#303D35" stroke-width="0.4"/>
<line x1="1" y1="138.5" x2="58" y2="138.5" stroke="#303D35" stroke-dasharray="2 2"/>
</svg>
