<svg width="234" height="438" viewBox="0 0 234 438" fill="none" xmlns="http://www.w3.org/2000/svg">
<path fill-rule="evenodd" clip-rule="evenodd" d="M171.448 99.9215L171.448 99.9219H152.106H152.106L152.105 99.9489L150.723 127.55H150.723L152.106 99.9215H171.448ZM172.33 80.863L171.925 80.1214L131.825 0C131.601 2.23829 131.486 4.36778 131.374 6.44135V6.44148V6.44161V6.44174L131.374 6.44221L131.373 6.44274L131.373 6.44331C131.255 8.63487 131.14 10.764 130.903 12.8931C129.52 28.0885 128.137 43.7444 127.216 59.4003L124.45 96.6982C123.989 100.842 120.763 106.368 118.458 109.131L114.771 112.815C84.8104 142.745 41.0224 153.796 0.460926 142.285H0C0 146.429 0.460926 168.992 18.437 186.95C29.4993 198.462 45.4166 205.636 62.9318 205.636H140.045H146.25L166.658 205.799L147.496 337.062C142.426 371.137 157.636 405.672 186.675 424.091C200.041 432.379 216.945 437.864 234 437.864V205.636H234L234 205.635V133.841L233.988 133.853C233.814 122.93 231.222 111.673 225.854 100.842L176.074 0L172.33 80.863ZM127.677 164.387C132.259 164.387 135.974 160.676 135.974 156.099C135.974 151.521 132.259 147.81 127.677 147.81C123.095 147.81 119.38 151.521 119.38 156.099C119.38 160.676 123.095 164.387 127.677 164.387Z" fill="#303D35"/>
</svg>
