<svg width="670" height="670" viewBox="0 0 670 670" fill="none" xmlns="http://www.w3.org/2000/svg">
<g clip-path="url(#clip0_335_1208)">
<path fill-rule="evenodd" clip-rule="evenodd" d="M350.448 203.922L350.448 203.922H331.106H331.106L331.105 203.949L329.723 231.55H329.723L331.106 203.922H350.448ZM351.33 184.863L350.925 184.121L310.825 104C310.601 106.238 310.486 108.368 310.374 110.441V110.441V110.442V110.442L310.374 110.442L310.373 110.443L310.373 110.443C310.255 112.635 310.14 114.764 309.903 116.893C308.52 132.089 307.137 147.744 306.216 163.4L303.45 200.698C302.989 204.842 299.763 210.368 297.458 213.131L293.771 216.815C263.81 246.745 220.022 257.796 179.461 246.285H179C179 250.429 179.461 272.992 197.437 290.95C208.499 302.462 224.417 309.636 241.932 309.636H319.045H325.25L345.658 309.799L326.496 441.062C321.426 475.137 336.636 509.672 365.675 528.091C379.041 536.379 395.945 541.864 413 541.864V309.636H413L413 309.635V237.841L412.988 237.853C412.814 226.93 410.222 215.673 404.854 204.842L355.074 104L351.33 184.863ZM306.677 268.387C311.259 268.387 314.974 264.676 314.974 260.099C314.974 255.521 311.259 251.81 306.677 251.81C302.095 251.81 298.38 255.521 298.38 260.099C298.38 264.676 302.095 268.387 306.677 268.387Z" fill="#303D35"/>
<line x1="412.5" y1="542" x2="412.5" y2="419" stroke="#303D35"/>
</g>
<defs>
<clipPath id="clip0_335_1208">
<rect width="670" height="670" fill="white"/>
</clipPath>
</defs>
</svg>
