<svg width="235" height="26" viewBox="0 0 235 26" fill="none" xmlns="http://www.w3.org/2000/svg">
<path d="M183 26H0V22.0339C0 9.91525 11.2193 0 24.9318 0H167.542V0.220352L174.024 11.0169L177.266 16.3051L183 26Z" fill="#303D35"/>
<path d="M235 0V25.9999H216.888C201.341 25.9999 186.889 21.1819 175.064 13.079C174.188 12.422 173.312 11.7651 172.218 11.1081L166.5 0C186.975 0 190.975 0 166.5 0H235C216.5 0 219.5 0 235 0C210.5 0 228.5 0 235 0Z" fill="#303D35"/>
<line x1="98" y1="0.5" x2="235" y2="0.5" stroke="#303D35"/>
</svg>
