<svg width="278" height="286" viewBox="0 0 278 286" fill="none" xmlns="http://www.w3.org/2000/svg">
<path d="M1.73109 0H0.649061L3.2461 0.646083L0.432707 0H0.216354H0L65.7876 107.681C87.2119 142.785 135.687 148.169 164.469 118.664L222.466 58.1476V192.964C222.466 232.806 244.539 267.694 277 286V0H1.73109ZM4.11178 0.861441L3.46245 0.646083L4.54448 0.861441H4.11178ZM246.054 34.4578C243.025 34.4578 240.86 32.0889 240.86 29.2892C240.86 26.2741 243.241 24.1205 246.054 24.1205C248.868 24.1205 251.248 26.4895 251.248 29.2892C251.248 32.0889 248.868 34.4578 246.054 34.4578Z" fill="#303D35"/>
<line x1="277.5" y1="77" x2="277.5" y2="286" stroke="#303D35"/>
</svg>
