<svg width="428" height="291" viewBox="0 0 428 291" fill="none" xmlns="http://www.w3.org/2000/svg">
<path fill-rule="evenodd" clip-rule="evenodd" d="M58.7247 0H62H65H66.4465H318.489H323.169C350.082 1.16468 373.952 11.6468 392.206 28.1853C430.586 62.8927 438.777 119.729 413.502 164.686L385 215L379.653 235H375V290H355.121L346.32 235H340.833L332 215H177L171.316 235H166V290H146.121L137.32 235H131.763L123 215H124.718C90.3169 215 62.234 187.281 62.234 152.806V75H16.9129C12.2149 75 7.98651 73.1367 4.93282 70.1087C1.87913 67.0807 0 62.8882 0 58.2298C0 26.087 26.3087 0 58.7247 0ZM34.7652 43.323C34.7652 46.5839 37.5839 49.3789 40.8725 49.3789C44.396 49.3789 46.9798 46.5839 46.9798 43.323C46.9798 40.0621 44.1611 37.2671 40.8725 37.2671C37.5839 37.2671 34.7652 40.0621 34.7652 43.323Z" fill="#303D35"/>
<rect x="0.5" y="0.5" width="61" height="74" stroke="#000001"/>
<rect x="62.5" y="0.5" width="365" height="214" stroke="#000002"/>
<rect x="123.5" y="215.5" width="262" height="75" stroke="#000003"/>
</svg>
