<svg width="388" height="206" viewBox="0 0 388 206" fill="none" xmlns="http://www.w3.org/2000/svg">
<path d="M111.065 8H64.5588C54.2969 8 46 16.3094 46 26.5868C46 36.8642 54.2969 45.1736 64.5588 45.1736H352.111C367.394 45.1736 379.84 57.6377 379.84 72.9445C379.84 88.2513 367.394 100.715 352.111 100.715H168.27" stroke="#303D35" stroke-width="15.5" stroke-miterlimit="10"/>
<path fill-rule="evenodd" clip-rule="evenodd" d="M315 195.25V188C315 151.92 294.975 120.552 265.717 104.589C252.398 97.1547 236.897 93 220.521 93H0V124.25V164.505V205.25H315V205V200.25V195.25Z" fill="#303D35"/>
<path d="M0.5 93.0059L0.5 205.25" stroke="#303D35"/>
<line x1="-4.37114e-08" y1="204.5" x2="315" y2="204.5" stroke="#303D35" stroke-dasharray="2 2"/>
</svg>
