<svg width="352" height="131" viewBox="0 0 352 131" fill="none" xmlns="http://www.w3.org/2000/svg">
<path d="M36 0H0C0 19.9993 16.0309 36 36 36V0Z" fill="#303D35"/>
<path d="M74 0L40.5 130.108H39.0002H20.4414V0H74Z" fill="#303D35"/>
<path d="M38.6772 111.629H20.1184C9.85644 111.629 1 119.831 1 130.108H39L38.6772 111.629Z" fill="#303D35"/>
<line y1="0.5" x2="73" y2="0.5" stroke="#303D35" stroke-dasharray="2 2"/>
<path d="M315 0H241C241 41.1097 273.952 74 315 74V0Z" fill="#303D35"/>
<path d="M332.559 130.153H314V37H351.118L332.559 130.153Z" fill="#303D35"/>
<path d="M331.677 111.629H313.118C302.856 111.629 294 119.831 294 130.108H332L331.677 111.629Z" fill="#303D35"/>
<line x1="4.37114e-08" y1="0.5" x2="315" y2="0.500028" stroke="#303D35"/>
</svg>
