<svg width="106" height="103" viewBox="0 0 106 103" fill="none" xmlns="http://www.w3.org/2000/svg">
<path fill-rule="evenodd" clip-rule="evenodd" d="M55.089 13C53.4572 10.4811 51.694 8.07688 49.9164 5.6529C48.5577 3.80015 47.1905 1.93586 45.867 0C44.6046 1.04915 42.711 2.7278 41.2382 5.24577C39.6577 8.00425 39.1902 10.7627 39.1391 13H23L0 46.7923L7.91045 68H65.6567C85.4342 68 105 76.5 105 103L105.927 20H106V13.4342V13H55.089ZM27.9831 36.9302C27.9831 39.0285 29.6663 40.917 31.9807 40.917C34.295 40.917 36.1886 39.0285 35.9782 36.9302H27.9831Z" fill="#303D35"/>
<line x1="105.5" y1="13" x2="105.5" y2="103" stroke="#303D35"/>
</svg>
